<?xml version="1.0" encoding="utf-8"?>
<!-- Generator: Adobe Illustrator 16.0.0, SVG Export Plug-In . SVG Version: 6.00 Build 0)  -->
<!DOCTYPE svg PUBLIC "-//W3C//DTD SVG 1.1//EN" "http://www.w3.org/Graphics/SVG/1.1/DTD/svg11.dtd">
<svg version="1.1" id="Layer_1" xmlns="http://www.w3.org/2000/svg" xmlns:xlink="http://www.w3.org/1999/xlink" x="0px" y="0px"
	 width="46px" height="30px" viewBox="0 0 46 30" enable-background="new 0 0 46 30" xml:space="preserve">
<path fill="#FFFFFF" d="M11.34,11.23H8.07L4.5,18.88h2.38l0.68-1.37h4.37l0.71,1.37h2.39L11.34,11.23z M8.4,15.76l1.29-2.65
	l1.37,2.65H8.4z"/>
<polygon fill="#FFFFFF" points="22.9,17.24 22.9,18.88 15.54,18.88 15.54,11.23 18.09,11.23 18.09,17.24 "/>
<polygon fill="#FFFFFF" points="30.55,11.23 30.55,12.86 27.19,12.86 27.19,18.88 24.53,18.88 24.53,12.86 21.05,12.86 21.05,11.23 
	"/>
<path fill="#FFFFFF" d="M35.71,11.36c-3.479,0-4.7,1.45-4.7,3.64c0,2.19,0.91,3.93,5.01,3.93c4.181,0,5.011-1.76,5.011-3.93
	S39.8,11.36,35.71,11.36z M38.26,15.92c-0.109,0.29-0.27,0.55-0.479,0.771c-0.221,0.21-0.48,0.38-0.771,0.489
	c-0.279,0.101-0.59,0.141-0.89,0.12v-0.03c-1.74,0-2.351-1-2.351-2.24c0-0.61,0.24-1.2,0.671-1.63c0.43-0.43,1.02-0.67,1.63-0.67
	c0.609,0,1.189,0.24,1.62,0.67c0.43,0.43,0.68,1.02,0.68,1.63C38.4,15.33,38.36,15.64,38.26,15.92z"/>
<polygon fill="#0A0A0A" points="22.9,17.24 22.9,18.88 15.54,18.88 15.54,11.23 18.09,11.23 18.09,17.24 "/>
<polygon fill="#0A0A0A" points="30.55,11.23 30.55,12.86 27.19,12.86 27.19,18.88 24.53,18.88 24.53,12.86 21.05,12.86 21.05,11.23 
	"/>
<path fill="#0A0A0A" d="M11.34,11.23H8.07L4.5,18.88h2.38l0.68-1.37h4.37l0.71,1.37h2.39L11.34,11.23z M8.4,15.76l1.29-2.65
	l1.37,2.65H8.4z"/>
<path fill="#0A0A0A" d="M35.71,11.36c-3.479,0-4.7,1.45-4.7,3.64c0,2.19,0.91,3.93,5.01,3.93c4.181,0,5.011-1.76,5.011-3.93
	S39.8,11.36,35.71,11.36z M38.26,15.92c-0.109,0.29-0.27,0.55-0.479,0.771c-0.221,0.21-0.48,0.38-0.771,0.489
	c-0.279,0.101-0.59,0.141-0.89,0.12v-0.03c-1.74,0-2.351-1-2.351-2.24c0-0.61,0.24-1.2,0.671-1.63c0.43-0.43,1.02-0.67,1.63-0.67
	c0.609,0,1.189,0.24,1.62,0.67c0.43,0.43,0.68,1.02,0.68,1.63C38.4,15.33,38.36,15.64,38.26,15.92z"/>
<path fill="#201A17" d="M39.2,4.35C34.86,1.55,29.11,0,22.99,0S11.15,1.52,6.78,4.35C2.41,7.19,0,10.97,0,15
	c0,4.03,2.45,7.84,6.78,10.65C11.12,28.46,16.87,30,22.99,30s11.84-1.52,16.21-4.35C43.57,22.81,46,19.03,46,15
	C46,10.97,43.54,7.16,39.2,4.35z M22.99,29.39C10.63,29.39,0.61,22.93,0.61,15c0-7.93,10.04-14.39,22.38-14.39
	c12.34,0,22.38,6.46,22.38,14.39C45.37,22.93,35.35,29.39,22.99,29.39z"/>
<path fill="#0A0A0A" d="M39.2,4.35C34.86,1.55,29.11,0,22.99,0S11.15,1.52,6.78,4.35C2.41,7.19,0,10.97,0,15
	c0,4.03,2.45,7.84,6.78,10.65C11.12,28.46,16.87,30,22.99,30s11.84-1.52,16.21-4.35C43.57,22.81,46,19.03,46,15
	C46,10.97,43.54,7.16,39.2,4.35z M22.99,29.39C10.63,29.39,0.61,22.93,0.61,15c0-7.93,10.04-14.39,22.38-14.39
	c12.34,0,22.38,6.46,22.38,14.39C45.37,22.93,35.35,29.39,22.99,29.39z"/>
<path fill="#0A0A0A" d="M41.75,21.49c-3.58,4.319-10.63,7.279-18.76,7.279c-8.12,0-15.18-2.96-18.76-7.279H41.75z"/>
<path fill="#0A0A0A" d="M41.84,8.64H4.15C7.7,4.23,14.81,1.23,22.99,1.23C31.18,1.23,38.29,4.23,41.84,8.64z"/>
</svg>
