<?xml version="1.0" encoding="utf-8"?>
<!-- Generator: Adobe Illustrator 16.0.0, SVG Export Plug-In . SVG Version: 6.00 Build 0)  -->
<!DOCTYPE svg PUBLIC "-//W3C//DTD SVG 1.1//EN" "http://www.w3.org/Graphics/SVG/1.1/DTD/svg11.dtd">
<svg version="1.1" id="Layer_1" xmlns="http://www.w3.org/2000/svg" xmlns:xlink="http://www.w3.org/1999/xlink" x="0px" y="0px"
	 width="64px" height="30px" viewBox="0 0 64 30" enable-background="new 0 0 64 30" xml:space="preserve">
<path d="M60.216,18.096h1.779V2.409h-1.829L60.216,18.096z"/>
<path d="M48.602,10.414l-0.942,1.491l-0.05-9.445h0.992h0.791h0.25V8.85l-0.25,0.395L48.602,10.414z"/>
<path d="M45.654,17.2l-0.793,1.218h0.793h2.105l0.842-1.367l0.792-1.191l8.766-13.45h-2.576l-5.94,9.246v-0.646l-0.249,0.35
	l-0.792,1.191L45.654,17.2z"/>
<path d="M37.137,10.909l-4.479,6.786l0.045,1.118h1.513l2.921-4.445L44.86,2.459h-2.178L37.137,10.909z"/>
<path d="M37.138,18.813h-1.485l1.485-2.31l8.517-13.25l0.498-0.795h0.244v11.359l-0.742,1.145L44.169,17.3V9.618l-5.868,9.195
	H37.138z"/>
<path d="M26.937,4.3H22.16l1.042-1.841h3.735h10.202h4.482L40.285,4.25h-3.146L26.937,4.3z"/>
<path d="M26.936,11.059l-5.125,7.855h-1.236v-1.369l6.361-10.041l0.1-0.146h-0.1h-6.063l-0.149-0.6l0.743-1.291l5.469-0.05h3.641
	L26.936,11.059z"/>
<path d="M26.936,13.15l-3.686,5.764h2.993l0.693-1.168l6.117-10.337h4.084h0.869l1.535-2.091l-2.404,0.05l-5.225,0.05L26.936,13.15z
	"/>
<path d="M17.826,18.713h2.228V2.459h-2.327L17.826,18.713z"/>
<path d="M9.657,9.518L3.64,18.713H1.982v-1.168L9.657,5.768l2.15-3.309h1.44h0.987L13.248,4L9.657,9.518z"/>
<path d="M9.658,11.609L8.965,12.7h7.697V2.459h-1.141l-2.228,3.604l-3.622,5.545H9.658z M13.248,11.109l-0.992,0.05l2.079-3.354
	h0.398v3.304H13.248z"/>
<path d="M49.394,18.045l9.657-15.036l-0.049,15.086h-2.033V9.718l-5.32,8.7h-2.255h-0.249L49.394,18.045z"/>
<path d="M58.553,24.545h1.24l-1.24-2.727l-1.186,2.727H58.553z M0.842,20.109h3.59c0.529-0.016,1.058,0.002,1.585,0.049
	c0.336,0.041,0.659,0.159,0.942,0.346c0.262,0.158,0.497,0.36,0.692,0.596c0.155,0.256,0.24,0.547,0.245,0.846
	c0.01,0.348-0.113,0.686-0.344,0.945c-0.223,0.309-0.541,0.536-0.905,0.646c0.468,0.099,0.901,0.322,1.254,0.646
	c0.292,0.31,0.454,0.72,0.453,1.146c-0.007,0.337-0.111,0.665-0.299,0.945c-0.195,0.296-0.448,0.55-0.743,0.745
	c-0.382,0.203-0.804,0.321-1.236,0.346c-0.543,0.054-1.089,0.07-1.634,0.051h-3.59v-7.305H0.842z M4.432,21.363H2.698v1.691h1.734
	c0.246-0.036,0.494-0.053,0.743-0.051c0.264-0.021,0.519-0.107,0.743-0.25c0.08-0.076,0.144-0.169,0.186-0.271
	c0.043-0.102,0.064-0.213,0.063-0.324c-0.008-0.207-0.098-0.402-0.249-0.545c-0.182-0.15-0.408-0.237-0.643-0.25H4.432z
	 M4.432,24.272H2.698v1.937h2.871c0.242-0.025,0.469-0.129,0.647-0.295c0.088-0.082,0.156-0.183,0.198-0.295
	c0.042-0.111,0.058-0.232,0.046-0.352c0.004-0.193-0.048-0.385-0.149-0.55c-0.172-0.155-0.374-0.272-0.593-0.345
	C5.294,24.294,4.863,24.261,4.432,24.272z M9.902,27.477v-7.367h6.638v1.254h-4.827v1.641h4.478v1.178h-4.478v1.991h4.98v1.241
	H9.902V27.477z M21.86,21.363h-1.78v1.818h1.78c0.383,0.016,0.766-0.018,1.141-0.1c0.195-0.038,0.37-0.145,0.494-0.301
	c0.072-0.07,0.127-0.155,0.161-0.25c0.035-0.094,0.048-0.195,0.038-0.295c0.001-0.111-0.021-0.221-0.063-0.324
	c-0.043-0.102-0.106-0.194-0.186-0.271c-0.198-0.16-0.439-0.257-0.693-0.277H21.86z M21.86,24.818
	c-0.16-0.146-0.344-0.264-0.543-0.346c-0.299-0.049-0.603-0.066-0.906-0.05h-0.344v3.054h-1.834v-7.367h3.839
	c0.699-0.033,1.398,0.032,2.079,0.195c0.394,0.127,0.74,0.371,0.991,0.699c0.266,0.319,0.406,0.726,0.394,1.142
	c0.002,0.261-0.049,0.519-0.151,0.758s-0.252,0.454-0.442,0.633c-0.498,0.389-1.104,0.614-1.734,0.646
	c0.348,0.163,0.666,0.383,0.942,0.65c0.39,0.356,0.74,0.756,1.041,1.19l1.087,1.392h-2.201l-1.29-1.592
	c-0.287-0.363-0.601-0.704-0.942-1.018L21.86,24.818z M26.791,25.068l1.779-0.101c0.075,0.418,0.304,0.792,0.643,1.046
	c0.389,0.236,0.836,0.355,1.291,0.346c0.448,0.031,0.896-0.071,1.286-0.296c0.133-0.074,0.245-0.182,0.325-0.313
	s0.124-0.28,0.128-0.433c0.004-0.078-0.012-0.156-0.047-0.227c-0.035-0.07-0.087-0.13-0.152-0.174
	c-0.168-0.187-0.395-0.311-0.643-0.35l-1.436-0.296c-0.72-0.112-1.41-0.366-2.033-0.745c-0.24-0.156-0.438-0.369-0.576-0.621
	c-0.138-0.251-0.212-0.533-0.216-0.82c-0.011-0.192,0.019-0.385,0.087-0.565s0.175-0.344,0.311-0.479
	c0.265-0.367,0.649-0.631,1.086-0.746c0.554-0.208,1.143-0.311,1.734-0.3c0.896-0.049,1.785,0.178,2.55,0.65
	c0.274,0.163,0.503,0.395,0.662,0.673c0.158,0.277,0.242,0.593,0.242,0.913l-1.783,0.05c-0.059-0.317-0.235-0.602-0.494-0.795
	c-0.354-0.178-0.746-0.262-1.141-0.246c-0.425-0.014-0.848,0.07-1.236,0.246c-0.088,0.051-0.161,0.124-0.213,0.212
	c-0.052,0.087-0.082,0.187-0.086,0.288c0.006,0.088,0.038,0.172,0.091,0.242c0.053,0.07,0.125,0.123,0.208,0.153
	c0.199,0.2,0.792,0.35,1.634,0.5c0.661,0.111,1.307,0.294,1.929,0.546c0.384,0.16,0.722,0.41,0.987,0.73
	c0.235,0.347,0.357,0.758,0.348,1.177c-0.008,0.419-0.147,0.825-0.397,1.16c-0.316,0.37-0.733,0.641-1.2,0.777
	c-0.638,0.216-1.31,0.317-1.983,0.3c-0.913,0.059-1.82-0.169-2.599-0.649c-0.298-0.226-0.547-0.509-0.734-0.833
	c-0.187-0.324-0.306-0.682-0.352-1.054V25.068z M39.143,21.846L39.092,21.8l-1.186,2.745h2.427l-1.19-2.727V21.846z M39.143,25.8
	h-1.784l-0.743,1.642h-1.879l3.5-7.359h1.879l3.591,7.359h-1.938L40.977,25.8H39.143z M44.616,27.463v-7.354h2.717l1.634,5l1.586-5
	h2.716v7.354h-1.634v-5.79l-1.784,5.79h-1.734l-1.733-5.79v5.79H44.616z M59.559,20.109l3.58,7.354h-1.982l-0.793-1.641h-3.518
	l-0.742,1.641H54.17l3.49-7.354H59.559z"/>
<path d="M8.368,13.846l8.272-0.027v4.873h-1.956v-2.709H9.631l-1.657,2.731H5.076l3.147-4.846h0.145V13.846z"/>
</svg>
