<?xml version="1.0" encoding="utf-8"?>
<!-- Generator: Adobe Illustrator 16.0.0, SVG Export Plug-In . SVG Version: 6.00 Build 0)  -->
<!DOCTYPE svg PUBLIC "-//W3C//DTD SVG 1.1//EN" "http://www.w3.org/Graphics/SVG/1.1/DTD/svg11.dtd">
<svg version="1.1" id="Layer_1" xmlns="http://www.w3.org/2000/svg" xmlns:xlink="http://www.w3.org/1999/xlink" x="0px" y="0px"
	 width="609.45px" height="152.992px" viewBox="0 0 609.45 152.992" enable-background="new 0 0 609.45 152.992"
	 xml:space="preserve">
<g>
	<path d="M336.011,110.958c-0.042-3.924-1.46-6.703-4.292-8.258c-0.86-0.435-1.952-0.773-3.265-1.014
		c-1.31-0.239-2.757-0.359-4.338-0.363h-5.692v19.671h5.692c4.124,0.017,7.139-0.753,8.996-2.365
		c0.938-0.777,1.653-1.824,2.149-3.144C335.756,114.167,336.002,112.653,336.011,110.958 M318.424,83.063v16.851h5.918
		c6.881-0.041,10.445-2.898,10.482-8.622c0.049-5.558-3.705-8.27-10.989-8.229H318.424z M313.756,118.327
		c0.032-0.633,0.07-1.643,0.103-3.023V88.748l-0.087-2.576c-0.021-0.546-0.047-0.918-0.074-1.116
		c-0.028-0.207-0.072-0.385-0.132-0.546c-0.201-0.653-0.642-1.116-1.303-1.397c-0.612-0.257-1.518-0.381-2.69-0.389v-0.901
		l15.164-0.005c2.206,0.009,4.195,0.149,5.973,0.438c1.778,0.281,3.209,0.674,4.305,1.175c3.168,1.505,4.735,4.036,4.717,7.633
		c0.039,5.148-3.346,8.432-10.353,9.279l-1.175,0.19c1.576,0.058,3.705,0.579,4.698,0.811c0.983,0.228,1.947,0.587,2.895,1.079
		c3.717,1.869,5.549,4.854,5.512,8.99c0.019,5.016-2.427,8.274-7.392,9.816c-1.083,0.311-2.445,0.554-4.088,0.732
		c-1.651,0.178-3.439,0.269-5.373,0.272h-14.883v-0.905c1.754-0.021,2.959-0.29,3.492-0.918c0.222-0.211,0.381-0.447,0.484-0.716
		C313.656,119.423,313.721,118.955,313.756,118.327"/>
	<path d="M348.701,114.865c0.021,1.841,0.468,3.333,1.36,4.458c0.896,1.133,2.104,1.716,3.598,1.741
		c1.51-0.021,2.938-0.414,4.27-1.175c1.331-0.765,2.382-1.786,3.141-3.052c0.463-0.807,0.802-1.844,1.013-3.105
		c0.211-1.249,0.314-2.808,0.314-4.673v-2.895c-2.704,0.236-4.638,0.492-6.041,0.79c-1.416,0.298-2.665,0.724-3.755,1.286
		C350.019,109.523,348.722,111.748,348.701,114.865 M363.013,121.081c-0.308-0.608-0.525-1.332-0.616-3.185l-0.028-0.546
		l-0.364,0.414c-0.435,0.483-0.86,0.913-1.273,1.273c-0.42,0.363-0.906,0.736-1.451,1.112c-1.195,0.881-2.35,1.501-3.455,1.86
		c-1.106,0.36-2.352,0.534-3.74,0.521c-2.419,0.013-4.276-0.563-5.604-1.691c-0.74-0.666-1.325-1.505-1.753-2.522
		c-0.422-1.018-0.641-2.108-0.649-3.283c0.025-4.325,2.68-7.112,8.111-8.349c1.437-0.335,2.954-0.608,4.551-0.819
		c1.6-0.215,3.417-0.393,5.445-0.529l0.211-3.771c0-1.29-0.06-2.337-0.186-3.131c-0.126-0.806-0.335-1.509-0.629-2.101
		c-0.805-1.571-2.448-2.323-4.821-2.323c-3.809-0.021-5.872,1.794-6.087,5.396c-0.021,0.575-0.074,0.98-0.151,1.22
		c-0.072,0.232-0.196,0.401-0.37,0.525c-0.38,0.257-0.983,0.401-1.848,0.414c-1.869,0.024-2.568-0.529-2.537-1.464
		c0.012-0.977,0.337-1.923,0.986-2.833c0.653-0.914,1.561-1.712,2.733-2.386c2.108-1.17,4.809-1.766,8.119-1.778
		c3.624,0.013,6.054,0.831,7.381,2.402c0.538,0.658,0.937,1.477,1.193,2.465c0.26,0.984,0.391,2.237,0.389,3.759l-0.005,0.318
		l-0.028,1.477l-0.079,3.896l-0.058,5.354l-0.056,2.593c0.006,1.22,0.056,2.15,0.143,3.192c0.081,1.013,0.444,2.146,1.257,2.443
		c0.844,0.314,1.658,0.438,3.209,0.447c1.138-0.021,2.014-0.153,2.607-0.405c0.676-0.285,1.094-0.897,1.275-1.766
		c0.174-0.844,0.248-2.134,0.231-3.858V100.31c0.037-2.059-0.202-3.506-0.787-4.263c-0.573-0.736-1.64-1.055-3.104-1.038v-0.807
		l8.063-0.583v6.422l0.42-0.752c1.192-2.122,2.547-3.627,4.056-4.528c1.506-0.901,3.394-1.353,5.668-1.327
		c3.422-0.05,5.801,1.096,7.194,3.387c0.513,0.769,0.883,1.69,1.104,2.774c0.221,1.083,0.335,2.465,0.326,4.151v11.678
		c-0.021,1.741,0.052,3.039,0.22,3.883c0.174,0.868,0.583,1.477,1.263,1.753c0.564,0.236,1.874,0.36,2.99,0.389
		c1.048-0.028,1.856-0.161,2.411-0.4c0.659-0.29,1.061-0.901,1.229-1.766c0.164-0.848,0.236-2.134,0.215-3.858V87.967
		c0.021-1.575-0.045-2.741-0.202-3.494c-0.165-0.786-0.57-1.323-1.232-1.56c-0.574-0.202-1.437-0.297-2.567-0.302V81.81l8.386-0.43
		c-0.105,1.864-0.185,3.767-0.24,5.714c-0.054,2.03-0.082,3.805-0.082,5.322v18.446l9.237-10.122
		c1.307-1.447,2.022-2.663,2.034-3.639c0.064-1.356-1.302-1.969-3.552-2.08v-0.803h12.007v0.814
		c-0.722,0.083-1.349,0.216-1.884,0.397c-0.579,0.198-1.175,0.483-1.782,0.852c-0.616,0.372-1.136,0.716-1.553,1.025
		c-0.426,0.318-0.929,0.773-1.505,1.36c-0.577,0.588-1.417,1.477-2.517,2.672l-3.048,3.283l7.98,12.559
		c0.912,1.488,1.75,2.538,2.521,3.134c0.734,0.571,1.673,0.938,2.802,1.112v0.819h-7.301c-0.2-0.405-0.478-0.935-0.829-1.584
		l-1.161-2.121l-0.89-1.597l-5.905-9.626l-4.644,5.197l-0.012,2.907c-0.021,1.725,0.049,3.015,0.217,3.858
		c0.172,0.868,0.577,1.476,1.247,1.766c0.587,0.252,1.457,0.385,2.592,0.405v0.794h-24.676v-0.794
		c1.671-0.046,2.82-0.318,3.279-0.931c0.184-0.235,0.324-0.505,0.424-0.807c0.097-0.302,0.157-0.694,0.186-1.174
		c0.033-0.377,0.066-0.923,0.104-1.638c0.042-0.72,0.063-1.212,0.066-1.477v-11.343c0.011-2.795-0.289-4.866-0.922-6.182
		c-0.964-2.071-2.7-3.109-5.163-3.118c-2.748-0.008-4.938,1.299-6.561,3.883c-0.611,0.977-1.087,2.089-1.431,3.329
		c-0.339,1.24-0.517,2.465-0.521,3.664v9.763c-0.021,1.741,0.052,3.039,0.219,3.883c0.174,0.868,0.583,1.477,1.264,1.753
		c0.595,0.248,1.479,0.373,2.632,0.394v0.794h-12.137c-1.075,0.037-3.128,0.091-4.144,0.078c-1.066-0.017-1.579-0.128-2.551-0.202
		C363.66,121.87,363.298,121.647,363.013,121.081"/>
	<path d="M111.261,103.655h2.6c3.123-0.013,5.42-0.748,6.895-2.217c0.801-0.848,1.408-1.964,1.824-3.341
		c0.413-1.373,0.622-2.944,0.625-4.714c-0.017-6.657-2.933-9.99-8.744-9.999h-3.2V103.655z M111.261,105.223v10.053
		c-0.021,1.612,0.072,2.812,0.277,3.593c0.208,0.781,0.654,1.299,1.345,1.551c0.688,0.252,1.749,0.397,3.176,0.422v1.406h-15.79
		v-1.406c1.344-0.024,2.339-0.17,2.988-0.422c0.645-0.252,1.063-0.77,1.253-1.551c0.19-0.781,0.277-1.98,0.256-3.593V88.844
		c0.019-1.613-0.064-2.813-0.248-3.594c-0.184-0.786-0.586-1.307-1.203-1.567c-0.618-0.261-1.567-0.413-2.848-0.459v-1.406h15.04
		c5.071-0.021,8.785,0.873,11.143,2.684c2.359,1.812,3.525,4.661,3.498,8.561c0.018,5.475-2.115,9.06-6.396,10.755
		c-1.116,0.435-2.54,0.777-4.27,1.025c-1.733,0.248-3.657,0.377-5.774,0.381H111.261z"/>
	<path d="M137.25,105.359h11.492c-0.046-1.663-0.135-3.003-0.267-4.016c-0.129-1.018-0.337-1.923-0.616-2.721
		c-0.972-2.828-2.462-4.23-4.472-4.206c-2.254,0.021-3.936,1.601-5.045,4.743c-0.284,0.814-0.51,1.708-0.684,2.676
		C137.486,102.804,137.349,103.978,137.25,105.359 M155.569,106.918h-18.37c0.019,1.96,0.133,3.605,0.343,4.933
		c0.208,1.324,0.546,2.535,1.008,3.635c1.526,3.557,3.883,5.335,7.073,5.335c1.806-0.013,3.442-0.542,4.914-1.597
		c1.468-1.054,2.691-2.571,3.665-4.544l1.301,0.86c-1.279,2.547-2.842,4.416-4.688,5.611c-1.844,1.19-4.095,1.782-6.753,1.77
		c-4.182-0.054-8.028-1.39-10.436-4.007c-2.41-2.618-3.638-6.207-3.687-10.756c0.048-4.586,1.236-8.212,3.563-10.884
		c2.325-2.671,6.038-4.035,10.04-4.094c2.661,0.005,5.231,0.612,7.055,1.82c1.824,1.203,3.169,2.969,4.037,5.293
		c0.282,0.769,0.499,1.649,0.644,2.646C155.423,103.933,155.521,105.26,155.569,106.918"/>
	<path d="M156.744,93.95l10.19-0.703c0.055,1.018,0.095,1.869,0.123,2.56c0.028,0.695,0.041,1.303,0.041,1.832v1.625
		c2.214-4.048,4.889-6.091,8.022-6.124c1.354,0.025,2.455,0.422,3.3,1.183c0.846,0.765,1.282,1.745,1.307,2.937
		c-0.019,0.992-0.385,1.786-1.097,2.386c-0.711,0.595-1.647,0.905-2.805,0.918c-1.392,0.045-2.24-0.529-2.547-1.732
		c-0.201-0.745-0.408-1.249-0.624-1.518c-0.214-0.27-0.529-0.394-0.949-0.381h-0.107c-1.067,0.091-2.077,0.938-3.036,2.552
		c-0.432,0.802-0.758,1.687-0.974,2.658c-0.218,0.972-0.326,2.093-0.326,3.358v10.027c-0.021,1.601,0.057,2.778,0.233,3.54
		c0.176,0.756,0.576,1.252,1.196,1.488c0.623,0.231,1.59,0.363,2.907,0.393v1.299h-15.068v-1.299
		c1.228,0.004,2.139-0.115,2.729-0.359c0.593-0.244,0.976-0.753,1.152-1.521c0.178-0.778,0.256-1.956,0.24-3.54v-15.019
		c0.048-2.233-0.174-3.685-0.672-4.354c-0.498-0.67-1.575-0.972-3.233-0.901V93.95z"/>
	<path d="M191.833,93.247l0.055,5.367c2.196-3.613,5.339-5.438,9.432-5.475c4.162-0.024,6.729,1.869,7.696,5.694
		c1.176-1.973,2.521-3.416,4.031-4.33c1.509-0.922,3.273-1.377,5.291-1.364c3.19,0.017,5.539,1.067,7.048,3.143
		c0.588,0.79,1.01,1.749,1.259,2.887c0.252,1.141,0.374,2.617,0.367,4.433v11.926c-0.02,1.584,0.061,2.762,0.237,3.535
		s0.562,1.282,1.151,1.526c0.594,0.244,1.503,0.363,2.731,0.355v1.303h-14.691v-1.303c1.175,0.008,2.047-0.111,2.616-0.355
		c0.57-0.244,0.941-0.753,1.109-1.526c0.174-0.773,0.25-1.951,0.234-3.535v-11.872c0.012-2.849-0.339-4.904-1.051-6.165
		c-0.713-1.266-1.863-1.882-3.451-1.857c-1.906-0.037-3.515,0.956-4.823,2.981c-1.128,1.688-1.689,3.516-1.681,5.476v11.438
		c-0.017,1.584,0.06,2.762,0.232,3.535c0.174,0.773,0.549,1.282,1.125,1.526c0.578,0.244,1.461,0.363,2.655,0.355v1.303h-14.528
		v-1.303c1.174,0.008,2.047-0.111,2.617-0.355c0.569-0.244,0.939-0.753,1.109-1.526c0.172-0.773,0.25-1.951,0.231-3.535v-11.926
		c0.028-5.367-1.435-8.022-4.391-7.969c-1.838,0.066-3.379,0.939-4.62,2.614c-1.243,1.679-1.889,3.771-1.937,6.276v11.004
		c-0.017,1.601,0.06,2.791,0.231,3.561c0.17,0.772,0.54,1.277,1.109,1.513c0.569,0.236,1.441,0.352,2.616,0.344v1.303h-14.691
		v-1.303c1.23,0.008,2.138-0.107,2.731-0.344c0.59-0.235,0.976-0.74,1.151-1.513c0.178-0.77,0.256-1.96,0.237-3.561v-15.068
		c0.058-2.208-0.165-3.635-0.665-4.288c-0.498-0.657-1.613-0.959-3.345-0.918V93.95L191.833,93.247z"/>
	<path d="M269.67,95.729v18.104c-0.002,1.179,0.042,2.154,0.129,2.928c0.087,0.772,0.224,1.422,0.413,1.951
		c0.229,0.604,0.584,1.088,1.063,1.452c0.48,0.359,1.012,0.545,1.592,0.554c1.159-0.017,2.422-0.579,3.796-1.679l0.759,1.352
		c-2.177,1.828-4.652,2.729-7.426,2.713c-2.992-0.045-5.032-1.042-6.127-2.981c-0.213-0.43-0.38-0.918-0.5-1.472
		c-0.117-0.55-0.201-1.29-0.246-2.229c-0.046-0.936-0.069-2.196-0.067-3.78V95.729h-3.089v-1.625
		c1.182-0.046,2.181-0.294,3.002-0.745c0.822-0.454,1.537-1.161,2.149-2.129c0.479-0.736,0.875-1.555,1.184-2.452
		c0.312-0.897,0.584-2.014,0.821-3.35l2.71-0.269c-0.036,0.715-0.068,1.443-0.091,2.184c-0.023,0.735-0.042,1.625-0.054,2.662
		c-0.012,1.038-0.019,2.37-0.019,3.986h6.56v1.737H269.67z"/>
	<path d="M249.827,110.771V106.6c-3.881,0.261-6.634,0.979-8.26,2.15c-1.623,1.174-2.413,3.002-2.364,5.487
		c0.017,1.951,0.417,3.498,1.2,4.644c0.781,1.146,1.846,1.729,3.19,1.753c1.103-0.008,2.122-0.326,3.056-0.955
		c0.934-0.624,1.667-1.501,2.202-2.621c0.349-0.687,0.599-1.522,0.754-2.515C249.756,113.551,249.831,112.294,249.827,110.771
		 M259.94,121.102v1.146c-1.585,0.104-2.226,0.104-3.893,0.104c-1.323,0-2.693-0.021-3.83-0.447
		c-0.703-0.265-1.095-0.492-1.62-1.042c-0.366-0.583-0.599-0.616-0.715-2.232c-1.4,1.513-2.856,2.621-4.37,3.337
		c-1.517,0.711-3.149,1.063-4.899,1.055c-2.602-0.029-4.637-0.745-6.107-2.155c-1.469-1.409-2.214-3.349-2.242-5.813
		c-0.008-4.652,2.882-7.543,8.672-8.672c2.612-0.508,5.574-0.852,8.891-1.033v-3.523c0.027-2.82-0.272-4.775-0.894-5.863
		c-0.625-1.088-1.736-1.608-3.334-1.559c-1.699-0.038-2.909,0.578-3.632,1.84c-0.262,0.438-0.455,0.935-0.576,1.501
		c-0.12,0.563-0.218,1.344-0.292,2.349c-0.042,0.968-0.323,1.654-0.841,2.06c-0.517,0.409-1.338,0.607-2.466,0.6
		c-2.511-0.021-3.775-0.853-3.794-2.494c0.008-0.959,0.305-1.877,0.889-2.745c0.582-0.873,1.408-1.638,2.473-2.299
		c2.257-1.39,5.221-2.076,8.891-2.06c3.729-0.017,6.404,0.724,8.021,2.225c0.729,0.687,1.264,1.563,1.605,2.626
		c0.343,1.066,0.512,2.432,0.507,4.098l-0.055,4.714l-0.053,4.714c-0.044,1.547-0.064,2.522-0.055,2.928
		c-0.02,1.956,0.042,3.383,0.184,4.28c0.144,0.901,0.299,1.298,0.889,1.786C258.331,121.114,259.219,121.098,259.94,121.102"/>
	<path d="M296.498,110.776V106.6c-3.881,0.265-6.634,0.984-8.26,2.154c-1.626,1.175-2.413,3.002-2.364,5.487
		c0.017,1.952,0.417,3.498,1.2,4.644c0.781,1.146,1.846,1.729,3.19,1.753c1.104-0.008,2.122-0.326,3.056-0.955
		c0.934-0.624,1.667-1.501,2.201-2.621c0.35-0.687,0.6-1.521,0.754-2.515C296.427,113.555,296.502,112.298,296.498,110.776
		 M306.611,121.102v1.146c-1.586,0.104-2.226,0.107-3.894,0.107c-1.323,0-2.691-0.021-3.83-0.447
		c-0.703-0.264-1.095-0.487-1.618-1.046c-0.368-0.579-0.602-0.612-0.717-2.229c-1.4,1.509-2.856,2.621-4.37,3.337
		c-1.517,0.707-3.149,1.063-4.899,1.055c-2.602-0.029-4.637-0.749-6.107-2.154c-1.469-1.41-2.214-3.35-2.242-5.814
		c-0.008-4.652,2.882-7.542,8.672-8.671c2.612-0.509,5.574-0.853,8.891-1.034v-3.523c0.027-2.819-0.272-4.775-0.894-5.867
		c-0.625-1.088-1.736-1.604-3.334-1.555c-1.699-0.037-2.909,0.579-3.632,1.84c-0.263,0.438-0.455,0.935-0.576,1.501
		c-0.12,0.563-0.218,1.344-0.29,2.349c-0.044,0.964-0.325,1.65-0.843,2.06c-0.517,0.409-1.338,0.607-2.466,0.6
		c-2.511-0.021-3.775-0.852-3.794-2.493c0.008-0.96,0.305-1.878,0.889-2.746c0.582-0.872,1.408-1.638,2.473-2.295
		c2.257-1.394,5.221-2.08,8.89-2.063c3.73-0.017,6.405,0.724,8.022,2.225c0.729,0.687,1.264,1.563,1.605,2.626
		c0.342,1.066,0.512,2.432,0.507,4.094l-0.055,4.718l-0.053,4.714c-0.044,1.547-0.064,2.522-0.055,2.928
		c-0.02,1.956,0.042,3.383,0.184,4.28c0.144,0.901,0.299,1.299,0.889,1.786C305.001,121.118,305.891,121.098,306.611,121.102"/>
</g>
<polygon fill="#0096B8" points="418.225,54.434 418.117,56.522 458.17,103.511 459.609,103.742 459.791,103.651 460.494,102.353 
	443.412,45.176 440.513,43.222 "/>
<polygon fill="#005675" points="418.117,56.522 458.17,103.511 459.607,103.742 430.07,58.805 "/>
<polygon fill="#0BBBEF" points="440.513,43.222 430.302,55.243 434.472,57.066 443.412,45.178 443.412,45.176 "/>
<polygon fill="#007290" points="418.117,56.522 430.07,58.805 430.3,55.243 418.221,54.438 "/>
<polygon fill="#007290" points="434.468,57.066 459.791,103.651 460.494,102.349 443.414,45.18 "/>
<polygon fill="#81B73E" points="482.501,42.089 508.401,53.996 508.449,57.355 465.946,121.738 464.007,122.247 463.72,122.118 
	463.115,120.667 480.245,43.344 "/>
<polygon fill="#69931D" points="491.195,58.826 464.009,122.247 465.944,121.738 508.449,57.355 "/>
<polygon fill="#277933" points="480.243,43.346 463.113,120.663 463.72,122.114 486.306,56.134 "/>
<polygon fill="#AECC53" points="490.217,54.233 491.197,58.828 508.449,57.355 508.401,53.998 508.399,53.998 "/>
<polygon fill="#69931D" points="480.245,43.344 486.301,56.129 490.217,54.233 482.501,42.091 "/>
<polygon fill="#E4032E" points="442.94,23.77 443.975,21.785 477.13,21.428 479.273,23.65 463.389,76.728 462.38,77.311 
	462.349,77.307 461.261,76.574 "/>
<polygon fill="#B51227" points="442.942,23.766 455.788,30.165 458.176,27.339 443.972,21.787 "/>
<polygon fill="#791B15" points="442.94,23.77 461.261,76.574 462.343,77.307 455.788,30.163 442.94,23.768 "/>
<polygon fill="#B51227" points="462.021,30.171 462.38,77.311 463.389,76.724 479.271,23.65 "/>
<polygon fill="#EA5160" points="477.13,21.426 458.179,27.341 462.021,30.169 479.271,23.65 477.13,21.426 "/>
</svg>
