<?xml version="1.0" encoding="utf-8"?>
<!-- Generator: Adobe Illustrator 16.0.0, SVG Export Plug-In . SVG Version: 6.00 Build 0)  -->
<!DOCTYPE svg PUBLIC "-//W3C//DTD SVG 1.1//EN" "http://www.w3.org/Graphics/SVG/1.1/DTD/svg11.dtd">
<svg version="1.1" id="Layer_1" xmlns="http://www.w3.org/2000/svg" xmlns:xlink="http://www.w3.org/1999/xlink" x="0px" y="0px"
	 width="1600px" height="1070px" viewBox="0 0 1600 1070" enable-background="new 0 0 1600 1070" xml:space="preserve">
<g>
	<g transform="translate(0.000000,1070.000000) scale(0.100000,-0.100000)">
		<path d="M5567.998,8502.998c7.002-2.998,16.006-1.998,19.004,1c3.994,3.004-2.002,6.002-12.998,5
			C5562.998,8508.998,5560,8506,5567.998,8502.998z"/>
		<path d="M4557.998,8332.998c7.002-2.998,16.006-1.998,19.004,1c3.994,3.004-2.002,6.002-12.998,5
			C4552.998,8338.998,4550,8336,4557.998,8332.998z"/>
		<path d="M6237.998,7992.998c7.002-2.998,16.006-1.997,19.004,1.001c3.994,3.003-2.002,6.001-12.998,5
			C6232.998,7998.999,6230,7996,6237.998,7992.998z"/>
		<path d="M5367.998,7892.998c7.002-2.998,16.006-1.997,19.004,1.001c3.994,3.003-2.002,6.001-12.998,5
			C5362.998,7898.999,5360,7896,5367.998,7892.998z"/>
		<path d="M7730.995,7723.999c0-11.001,3.008-13.999,6.006-6.001c2.998,7.002,2.002,16.001-1.006,19.004
			C7732.997,7741,7729.999,7735,7730.995,7723.999z"/>
		<path d="M8402.997,7622.998c9.004-1.997,25-1.997,35,0c9.004,3.003,1.006,5-17.998,5S8392.997,7626,8402.997,7622.998z"/>
		<path d="M9252.997,7622.998c9.004-1.997,22.998-1.997,30,0c6.006,3.003-0.996,5-17.998,5
			C9249.003,7627.998,9242.997,7626,9252.997,7622.998z"/>
		<path d="M9367.997,7622.998c17.998-1.997,45-1.997,60,0c15,2.002,0,4.004-32.998,4.004S9349.999,7625,9367.997,7622.998z"/>
		<path d="M10727.997,7552.998c12.002-1.997,30-1.997,40,0c9.004,3.003-0.996,5-22.998,4.004
			C10722.997,7557.001,10714.999,7555,10727.997,7552.998z"/>
		<path d="M11427.997,7482.998c6.006-1.997,17.998-1.997,25,0c6.006,3.003,1.006,5-12.998,5S11420.995,7486,11427.997,7482.998z"/>
		<path d="M10497.997,7422.998c6.006-1.997,17.998-1.997,25,0c6.006,3.003,1.006,5-12.998,5S10490.995,7426,10497.997,7422.998z"/>
		<path d="M11937.997,7412.998c7.002-2.998,16.006-1.997,19.004,1.001c3.994,3.003-2.002,6.001-12.998,5
			C11932.997,7418.999,11929.999,7416,11937.997,7412.998z"/>
		<path d="M15110.994,5224.004c0-11.006,3.008-14.004,6.006-6.006c2.998,7.002,2.002,16.006-1.006,19.004
			C15112.996,5240.996,15109.998,5235,15110.994,5224.004z"/>
		<path d="M3767.998,3662.998c7.002-2.998,16.006-2.002,19.004,1.006c3.994,2.998-2.002,5.996-12.998,5
			C3762.998,3669.004,3760,3665.996,3767.998,3662.998z"/>
		<path d="M4077.998,3362.998c7.002-2.998,16.006-2.002,19.004,1.006c3.994,2.998-2.002,5.996-12.998,5
			C4072.998,3369.004,4070,3365.996,4077.998,3362.998z"/>
		<path d="M4557.998,3292.998c7.002-2.998,16.006-2.002,19.004,1.006c3.994,2.998-2.002,5.996-12.998,5
			C4552.998,3299.004,4550,3295.996,4557.998,3292.998z"/>
		<path d="M6117.998,3272.998c6.006-2.002,17.998-2.002,25,0c6.006,2.998,1.006,5-12.998,5S6110.996,3275.996,6117.998,3272.998z"/>
		<path d="M6942.998,3192.998c9.004-2.002,22.998-2.002,30,0c6.006,2.998-0.996,5-17.998,5
			C6939.003,3197.998,6932.998,3195.996,6942.998,3192.998z"/>
		<path d="M7317.998,3162.998c6.006-2.002,17.998-2.002,25,0c6.006,2.998,1.006,5-12.998,5S7310.996,3165.996,7317.998,3162.998z"/>
		<path d="M6207.998,3152.998c7.002-2.998,16.006-2.002,19.004,1.006c3.994,2.998-2.002,5.996-12.998,5
			C6202.998,3159.004,6200,3155.996,6207.998,3152.998z"/>
		<path d="M6367.998,3142.998c7.002-2.998,16.006-2.002,19.004,1.006c3.994,2.998-2.002,5.996-12.998,5
			C6362.998,3149.004,6360,3145.996,6367.998,3142.998z"/>
		<path d="M7727.997,3132.998c6.006-2.002,17.998-2.002,25,0c6.006,2.998,1.006,5-12.998,5S7720.995,3135.996,7727.997,3132.998z"/>
		<path d="M9292.997,2722.998c9.004-2.002,22.998-2.002,30,0c6.006,2.998-0.996,5-17.998,5
			C9289.003,2727.998,9282.997,2725.996,9292.997,2722.998z"/>
		<path d="M9377.997,2142.998c6.006-2.002,17.998-2.002,25,0c6.006,2.998,1.006,5-12.998,5S9370.995,2145.996,9377.997,2142.998z"/>
	</g>
	<path fill="#020000" d="M432.5,453.5c-8.6-17.7-27.1-28.3-55.1-31.5c-5-0.5-33.3-1-64.6-1c-46.1,0-55.8,0.2-55.8,1.3
		c0,0.8-3.2,8.3-7.1,16.8c-3.8,8.5-7.6,16.7-8.4,18.4c-0.7,1.6-3.8,8.4-6.9,14.9s-5.6,12.5-5.6,13.2c0,1.1,1.9,1.4,7.5,1.4
		c4.8,0,7.5,0.4,7.5,1.1c0,0.6-3.8,20.8-8.6,44.8c-4.7,24-10.3,52.8-12.5,64.1c-2.2,11.3-4.6,23.6-5.4,27.4
		c-0.8,3.8-1.5,7.199-1.5,7.699c0,0.801,67,1.4,67,0.601c0-0.101,1.6-8.3,3.5-18.2s4.9-25.5,6.7-34.7l3.2-16.6l31.5-0.5
		c34.8-0.5,40.8-1.3,56.7-7.7c24.8-9.9,41.2-28.2,48.8-54.2C438.8,482.1,438.5,465.7,432.5,453.5z M362.8,500.5
		c-4.3,8.1-9.9,12.4-19.6,14.9c-7.4,2-37.2,2.3-37.2,0.5c0-0.6,2.1-11.9,4.7-25.1l4.6-24l17.1,0.5c19.5,0.5,24.2,1.7,29.7,7.3
		c3.3,3.5,3.4,3.7,3.4,12.2C365.5,494.2,365.1,496.2,362.8,500.5z"/>
	<path fill="#020000" d="M600.8,545.5c6-1.1,17.1-5.3,23.1-8.6c20.5-11.601,33-27.8,37.2-48.3c4.3-20.9,0.3-36.6-12.4-48.9
		c-10.1-9.7-24.2-15.5-43.2-17.7c-13.7-1.5-116.5-1.3-116.9,0.2c-0.2,0.7-0.9,3.2-1.5,5.5c-0.6,2.3-2.9,8-5,12.5
		C469.5,467.3,462,484,462,484.9c0,0.7,2.7,1.1,7.1,1.1c6.9,0,7.1,0.1,6.5,2.2c-0.3,1.3-2.4,11.5-4.6,22.8s-7.4,37.8-11.5,59
		c-4.2,21.2-8.6,43.8-9.9,50.2c-1.2,6.5-2,12-1.8,12.3c0.3,0.3,15.3,0.5,33.3,0.5c25.2,0,32.8-0.3,33.1-1.3
		c0.3-0.601,3.8-18.2,7.9-39c5.6-28.7,7.6-37.4,8.5-36.5c0.6,0.7,5.7,9.399,11.4,19.3s13.7,23.8,17.8,31c4.1,7.1,9.2,15.9,11.2,19.5
		l3.8,6.5l41.1,0.3c28.3,0.101,41.1-0.1,41.1-0.8c0-0.6-1.7-3.4-3.8-6.3c-16.9-22.8-56.2-78.101-56.2-79
		C597,546.4,598.7,545.9,600.8,545.5z M582.4,505.9c-7.1,4.9-26.9,9.4-38.7,8.9l-6.4-0.3l4.4-22.5c2.4-12.4,4.6-23.5,4.8-24.8
		c0.6-2.5,0.3-2.5,15.2-1.2c17.8,1.6,28.1,6.3,30.4,14C594.5,488.1,589.7,500.9,582.4,505.9z"/>
	<path fill="#020000" d="M730.3,421h66.9l-0.6,3.7c-1.1,5.9-34.6,177.399-38.1,195c-1.4,6.7-2.5,12.5-2.5,12.8s-15.1,0.5-33.5,0.5
		s-33.5-0.2-33.5-0.4c0-0.199,1.5-8.199,3.4-17.699c1.9-9.601,6.9-35,11.1-56.4c4.2-21.5,9-46.3,10.8-55.3l3.3-16.2h-7.3
		c-4.6,0-7.3-0.4-7.3-1.1c0-0.6,3.8-9.2,8.4-19.2c15.9-34.6,17.7-38.7,18.3-42.2L730.3,421z"/>
	<path fill="#020000" d="M1054.3,421h66.9l-0.601,23.2c-0.399,12.8-1.1,51-1.6,84.8s-1.3,71.1-1.6,82.7L1116.8,633H1049.9l0.6-10.3
		c1-18.101,3.4-71.7,4-89.7l0.6-17.5l-2.3,2.9c-1.3,1.7-4.899,6.8-8.2,11.5c-3.199,4.8-11.399,16.5-18.1,26.1
		c-6.7,9.6-21.5,30.9-32.9,47.2L972.9,633H946.1l-2-6.8c-1.8-5.9-11.3-39.601-26.699-93.9c-2.601-9.5-5-17-5.301-16.7
		c-0.399,0.3-9.699,25.1-16.6,43.9c-0.8,2.2-7.3,19.5-14.3,38.5l-12.9,34.5l-33.3,0.3c-31.3,0.2-33.2,0.101-32.8-1.5
		c0.5-1.8,32.5-82.5,49.8-125.6c4.8-11.9,8.5-21.9,8.1-22.1c-0.3-0.2-3.199-0.7-6.399-1.1c-6.4-0.8-7.601-1.8-5.4-4.3
		c3-3.5,33.5-48.9,35.601-53l2.199-4.2l32.601,0.2l32.7,0.3l6.199,24c3.4,13.2,9.7,37.8,14,54.7c4.301,16.8,8.2,30.4,8.601,30.2
		c0.3-0.2,6.899-9.8,14.6-21.2c7.7-11.4,20.3-30.2,28.2-41.7c7.8-11.6,18-26.7,22.7-33.8L1054.3,421z"/>
	<path fill="#020000" d="M1401.5,627.2c-0.8-2.601-7.3-28.101-14.5-56.7s-18.3-72.5-24.7-97.5c-6.399-25-11.899-46.9-12.2-48.5
		l-0.699-3l-36.101-0.3l-36.2-0.2l-2.3,3.3c-1.3,1.8-12.5,12.7-25,24.1c-12.6,11.4-22.8,20.9-22.8,21.1s3.2,1.6,7,3.1
		c3.9,1.5,7,2.9,7,3.1c0,0.4-9.3,14.7-30,46.3c-6.9,10.4-15.4,23.5-19,29s-16.8,25.8-29.5,45.1c-12.6,19.301-23.1,35.5-23.3,36
		s14.8,0.9,35,0.9l35.3-0.1l12.3-18.4l12.3-18.5l44.101,0.2l44.2,0.3l4.399,18.2l4.5,18.3h35.2c19.3,0,35.4-0.3,35.8-0.6
		C1402.6,632.1,1402.2,629.7,1401.5,627.2z M1311.7,552.6c-0.2,0.2-11.601,0.301-25.4,0.2l-24.899-0.3L1278.1,525
		c9.2-15.1,17.801-29.1,19-31l2.301-3.5l1.3,5.5C1303.9,510.1,1312.1,552.2,1311.7,552.6z"/>
	<path fill="#020000" d="M1561.4,535.1c-9.301-63.5-68.801-119.4-170-159.5c-105.9-42-249.101-65.7-431.4-71.6
		c-35.5-1.1-122.7-1.2-161-0.1c-14.6,0.4-26.6,0.7-26.7,0.7c0-0.16,8.06-4.63,18-10c10-5.5,23.601-13,30.2-16.7
		c6.6-3.6,18.5-10.2,26.5-14.6c44.5-24.5,54-29.8,54-30.3c0-0.3-30-15.6-66.6-34c-36.601-18.4-67.9-34.1-69.601-34.8
		c-3-1.3-3-1.3-2.3,1.5c0.3,1.5,2.3,10.2,4.4,19.3l3.7,16.5l-29.5,0.7c-81.9,1.9-141.8,6.7-213.1,17.3c-17,2.5-54.8,9.2-68,12
		c-23.6,5.1-32.5,7.1-48,11C296.5,271.3,198.8,315.6,135.4,368c-12.9,10.7-37.2,35.2-45.6,46c-9.8,12.7-17.3,24.6-23.3,37.2
		c-9.8,20.5-13.4,34.5-14.2,55.8c-0.9,23.3,2.7,39.4,13.7,61.5c32.4,65,122.9,118.3,257,151.4c85.1,21,178.1,33.1,301.5,39.199
		c30.5,1.5,157.4,2.2,189.5,1.101c15.1-0.5,27.6-0.9,27.7-0.8c0.399,0.3-70.5,39.5-116.7,64.699c-5.7,3.101-10.6,6.101-10.7,6.601
		c-0.2,0.5,30.7,16.5,68.7,35.6c44.2,22.4,69,34.3,69,33.4c0-0.8-1.8-9.4-4-19.2s-4-17.9-4-18s15.4-0.5,34.3-0.8
		c230.4-4.2,434.7-54.2,562.2-137.5c70-45.8,111.3-97.7,120.5-151.601C1563.4,558.4,1563.5,549.3,1561.4,535.1z M1497.2,583.3
		c-30.5,62.9-125,121.3-262.2,161.9c-13.2,3.899-16.8,4.899-37.5,10.3c-75.4,19.5-169,33-261,37.5c-31.4,1.5-93.1,2.5-93.7,1.4
		c-0.3-0.5,0.3-8.301,1.4-17.4c1-9.1,1.6-17.5,1.3-18.7c-0.6-2.6-1.4-2.7-43.5-4.8c-122.6-6.2-258.1-20.8-343-37
		c-6.9-1.3-15.4-2.9-19-3.5c-22.3-3.9-79.2-17.3-108.2-25.6C201.5,650.3,124.9,600.2,109.9,542.2C97.6,494.7,129,443.6,199,397.5
		c14.6-9.6,23.8-14.9,45.5-26.1c113.3-58.3,281.7-95.8,455.5-101.3c14-0.4,36-0.9,48.8-0.9L772,269l-0.1,2.7c0,1.6-0.8,9.8-1.8,18.3
		c-2.1,18.5-2.1,18.6,7.4,18.9c36.9,1.1,108.7,5.8,164.5,10.6c79.2,6.9,174.8,20,237,32.5c57.8,11.5,96.4,21.4,141,36.2
		c95.1,31.3,156.1,71.1,178,116.2C1510.5,530,1510.2,556.4,1497.2,583.3z"/>
</g>
</svg>
